<?xml version="1.0" encoding="utf-8" standalone="no"?>
<!DOCTYPE svg PUBLIC "-//W3C//DTD SVG 1.1//EN"
  "http://www.w3.org/Graphics/SVG/1.1/DTD/svg11.dtd">
<svg xmlns:xlink="http://www.w3.org/1999/xlink" width="712.46125pt" height="351.21125pt" viewBox="0 0 712.46125 351.21125" xmlns="http://www.w3.org/2000/svg" version="1.1">
 <metadata>
  <rdf:RDF xmlns:dc="http://purl.org/dc/elements/1.1/" xmlns:cc="http://creativecommons.org/ns#" xmlns:rdf="http://www.w3.org/1999/02/22-rdf-syntax-ns#">
   <cc:Work>
    <dc:type rdf:resource="http://purl.org/dc/dcmitype/StillImage"/>
    <dc:date>2025-08-21T10:59:21.761696</dc:date>
    <dc:format>image/svg+xml</dc:format>
    <dc:creator>
     <cc:Agent>
      <dc:title>Matplotlib v3.10.3, https://matplotlib.org/</dc:title>
     </cc:Agent>
    </dc:creator>
   </cc:Work>
  </rdf:RDF>
 </metadata>
 <defs>
  <style type="text/css">*{stroke-linejoin: round; stroke-linecap: butt}</style>
 </defs>
 <g id="figure_1">
  <g id="patch_1">
   <path d="M 0 351.21125 
L 712.46125 351.21125 
L 712.46125 0 
L 0 0 
z
" style="fill: #ffffff"/>
  </g>
  <g id="axes_1">
   <g id="patch_2">
    <path d="M 43.78125 313.376875 
L 705.26125 313.376875 
L 705.26125 22.318125 
L 43.78125 22.318125 
z
" style="fill: #ffffff"/>
   </g>
   <g id="patch_3">
    <path d="M 73.848523 313.376875 
L 79.861977 313.376875 
L 79.861977 312.655003 
L 73.848523 312.655003 
z
" clip-path="url(#p405939d456)" style="fill: #1f77b4; fill-opacity: 0.5; stroke: #000000; stroke-width: 0.507273; stroke-linejoin: miter"/>
   </g>
   <g id="patch_4">
    <path d="M 79.861977 313.376875 
L 85.875432 313.376875 
L 85.875432 313.376875 
L 79.861977 313.376875 
z
" clip-path="url(#p405939d456)" style="fill: #1f77b4; fill-opacity: 0.5; stroke: #000000; stroke-width: 0.507273; stroke-linejoin: miter"/>
   </g>
   <g id="patch_5">
    <path d="M 85.875432 313.376875 
L 91.888886 313.376875 
L 91.888886 313.376875 
L 85.875432 313.376875 
z
" clip-path="url(#p405939d456)" style="fill: #1f77b4; fill-opacity: 0.5; stroke: #000000; stroke-width: 0.507273; stroke-linejoin: miter"/>
   </g>
   <g id="patch_6">
    <path d="M 91.888886 313.376875 
L 97.902341 313.376875 
L 97.902341 313.015939 
L 91.888886 313.015939 
z
" clip-path="url(#p405939d456)" style="fill: #1f77b4; fill-opacity: 0.5; stroke: #000000; stroke-width: 0.507273; stroke-linejoin: miter"/>
   </g>
   <g id="patch_7">
    <path d="M 97.902341 313.376875 
L 103.915795 313.376875 
L 103.915795 313.376875 
L 97.902341 313.376875 
z
" clip-path="url(#p405939d456)" style="fill: #1f77b4; fill-opacity: 0.5; stroke: #000000; stroke-width: 0.507273; stroke-linejoin: miter"/>
   </g>
   <g id="patch_8">
    <path d="M 103.915795 313.376875 
L 109.92925 313.376875 
L 109.92925 313.376875 
L 103.915795 313.376875 
z
" clip-path="url(#p405939d456)" style="fill: #1f77b4; fill-opacity: 0.5; stroke: #000000; stroke-width: 0.507273; stroke-linejoin: miter"/>
   </g>
   <g id="patch_9">
    <path d="M 109.92925 313.376875 
L 115.942705 313.376875 
L 115.942705 313.376875 
L 109.92925 313.376875 
z
" clip-path="url(#p405939d456)" style="fill: #1f77b4; fill-opacity: 0.5; stroke: #000000; stroke-width: 0.507273; stroke-linejoin: miter"/>
   </g>
   <g id="patch_10">
    <path d="M 115.942705 313.376875 
L 121.956159 313.376875 
L 121.956159 312.294067 
L 115.942705 312.294067 
z
" clip-path="url(#p405939d456)" style="fill: #1f77b4; fill-opacity: 0.5; stroke: #000000; stroke-width: 0.507273; stroke-linejoin: miter"/>
   </g>
   <g id="patch_11">
    <path d="M 121.956159 313.376875 
L 127.969614 313.376875 
L 127.969614 313.376875 
L 121.956159 313.376875 
z
" clip-path="url(#p405939d456)" style="fill: #1f77b4; fill-opacity: 0.5; stroke: #000000; stroke-width: 0.507273; stroke-linejoin: miter"/>
   </g>
   <g id="patch_12">
    <path d="M 127.969614 313.376875 
L 133.983068 313.376875 
L 133.983068 312.655003 
L 127.969614 312.655003 
z
" clip-path="url(#p405939d456)" style="fill: #1f77b4; fill-opacity: 0.5; stroke: #000000; stroke-width: 0.507273; stroke-linejoin: miter"/>
   </g>
   <g id="patch_13">
    <path d="M 133.983068 313.376875 
L 139.996523 313.376875 
L 139.996523 313.376875 
L 133.983068 313.376875 
z
" clip-path="url(#p405939d456)" style="fill: #1f77b4; fill-opacity: 0.5; stroke: #000000; stroke-width: 0.507273; stroke-linejoin: miter"/>
   </g>
   <g id="patch_14">
    <path d="M 139.996523 313.376875 
L 146.009977 313.376875 
L 146.009977 313.015939 
L 139.996523 313.015939 
z
" clip-path="url(#p405939d456)" style="fill: #1f77b4; fill-opacity: 0.5; stroke: #000000; stroke-width: 0.507273; stroke-linejoin: miter"/>
   </g>
   <g id="patch_15">
    <path d="M 146.009977 313.376875 
L 152.023432 313.376875 
L 152.023432 312.294067 
L 146.009977 312.294067 
z
" clip-path="url(#p405939d456)" style="fill: #1f77b4; fill-opacity: 0.5; stroke: #000000; stroke-width: 0.507273; stroke-linejoin: miter"/>
   </g>
   <g id="patch_16">
    <path d="M 152.023432 313.376875 
L 158.036886 313.376875 
L 158.036886 313.015939 
L 152.023432 313.015939 
z
" clip-path="url(#p405939d456)" style="fill: #1f77b4; fill-opacity: 0.5; stroke: #000000; stroke-width: 0.507273; stroke-linejoin: miter"/>
   </g>
   <g id="patch_17">
    <path d="M 158.036886 313.376875 
L 164.050341 313.376875 
L 164.050341 313.015939 
L 158.036886 313.015939 
z
" clip-path="url(#p405939d456)" style="fill: #1f77b4; fill-opacity: 0.5; stroke: #000000; stroke-width: 0.507273; stroke-linejoin: miter"/>
   </g>
   <g id="patch_18">
    <path d="M 164.050341 313.376875 
L 170.063795 313.376875 
L 170.063795 313.376875 
L 164.050341 313.376875 
z
" clip-path="url(#p405939d456)" style="fill: #1f77b4; fill-opacity: 0.5; stroke: #000000; stroke-width: 0.507273; stroke-linejoin: miter"/>
   </g>
   <g id="patch_19">
    <path d="M 170.063795 313.376875 
L 176.07725 313.376875 
L 176.07725 313.015939 
L 170.063795 313.015939 
z
" clip-path="url(#p405939d456)" style="fill: #1f77b4; fill-opacity: 0.5; stroke: #000000; stroke-width: 0.507273; stroke-linejoin: miter"/>
   </g>
   <g id="patch_20">
    <path d="M 176.07725 313.376875 
L 182.090705 313.376875 
L 182.090705 311.211259 
L 176.07725 311.211259 
z
" clip-path="url(#p405939d456)" style="fill: #1f77b4; fill-opacity: 0.5; stroke: #000000; stroke-width: 0.507273; stroke-linejoin: miter"/>
   </g>
   <g id="patch_21">
    <path d="M 182.090705 313.376875 
L 188.104159 313.376875 
L 188.104159 312.294067 
L 182.090705 312.294067 
z
" clip-path="url(#p405939d456)" style="fill: #1f77b4; fill-opacity: 0.5; stroke: #000000; stroke-width: 0.507273; stroke-linejoin: miter"/>
   </g>
   <g id="patch_22">
    <path d="M 188.104159 313.376875 
L 194.117614 313.376875 
L 194.117614 310.850323 
L 188.104159 310.850323 
z
" clip-path="url(#p405939d456)" style="fill: #1f77b4; fill-opacity: 0.5; stroke: #000000; stroke-width: 0.507273; stroke-linejoin: miter"/>
   </g>
   <g id="patch_23">
    <path d="M 194.117614 313.376875 
L 200.131068 313.376875 
L 200.131068 311.572195 
L 194.117614 311.572195 
z
" clip-path="url(#p405939d456)" style="fill: #1f77b4; fill-opacity: 0.5; stroke: #000000; stroke-width: 0.507273; stroke-linejoin: miter"/>
   </g>
   <g id="patch_24">
    <path d="M 200.131068 313.376875 
L 206.144523 313.376875 
L 206.144523 311.933131 
L 200.131068 311.933131 
z
" clip-path="url(#p405939d456)" style="fill: #1f77b4; fill-opacity: 0.5; stroke: #000000; stroke-width: 0.507273; stroke-linejoin: miter"/>
   </g>
   <g id="patch_25">
    <path d="M 206.144523 313.376875 
L 212.157977 313.376875 
L 212.157977 311.933131 
L 206.144523 311.933131 
z
" clip-path="url(#p405939d456)" style="fill: #1f77b4; fill-opacity: 0.5; stroke: #000000; stroke-width: 0.507273; stroke-linejoin: miter"/>
   </g>
   <g id="patch_26">
    <path d="M 212.157977 313.376875 
L 218.171432 313.376875 
L 218.171432 310.489387 
L 212.157977 310.489387 
z
" clip-path="url(#p405939d456)" style="fill: #1f77b4; fill-opacity: 0.5; stroke: #000000; stroke-width: 0.507273; stroke-linejoin: miter"/>
   </g>
   <g id="patch_27">
    <path d="M 218.171432 313.376875 
L 224.184886 313.376875 
L 224.184886 309.40658 
L 218.171432 309.40658 
z
" clip-path="url(#p405939d456)" style="fill: #1f77b4; fill-opacity: 0.5; stroke: #000000; stroke-width: 0.507273; stroke-linejoin: miter"/>
   </g>
   <g id="patch_28">
    <path d="M 224.184886 313.376875 
L 230.198341 313.376875 
L 230.198341 309.045644 
L 224.184886 309.045644 
z
" clip-path="url(#p405939d456)" style="fill: #1f77b4; fill-opacity: 0.5; stroke: #000000; stroke-width: 0.507273; stroke-linejoin: miter"/>
   </g>
   <g id="patch_29">
    <path d="M 230.198341 313.376875 
L 236.211795 313.376875 
L 236.211795 305.075348 
L 230.198341 305.075348 
z
" clip-path="url(#p405939d456)" style="fill: #1f77b4; fill-opacity: 0.5; stroke: #000000; stroke-width: 0.507273; stroke-linejoin: miter"/>
   </g>
   <g id="patch_30">
    <path d="M 236.211795 313.376875 
L 242.22525 313.376875 
L 242.22525 300.022245 
L 236.211795 300.022245 
z
" clip-path="url(#p405939d456)" style="fill: #1f77b4; fill-opacity: 0.5; stroke: #000000; stroke-width: 0.507273; stroke-linejoin: miter"/>
   </g>
   <g id="patch_31">
    <path d="M 242.22525 313.376875 
L 248.238705 313.376875 
L 248.238705 293.164462 
L 242.22525 293.164462 
z
" clip-path="url(#p405939d456)" style="fill: #1f77b4; fill-opacity: 0.5; stroke: #000000; stroke-width: 0.507273; stroke-linejoin: miter"/>
   </g>
   <g id="patch_32">
    <path d="M 248.238705 313.376875 
L 254.252159 313.376875 
L 254.252159 289.916038 
L 248.238705 289.916038 
z
" clip-path="url(#p405939d456)" style="fill: #1f77b4; fill-opacity: 0.5; stroke: #000000; stroke-width: 0.507273; stroke-linejoin: miter"/>
   </g>
   <g id="patch_33">
    <path d="M 254.252159 313.376875 
L 260.265614 313.376875 
L 260.265614 274.034856 
L 254.252159 274.034856 
z
" clip-path="url(#p405939d456)" style="fill: #1f77b4; fill-opacity: 0.5; stroke: #000000; stroke-width: 0.507273; stroke-linejoin: miter"/>
   </g>
   <g id="patch_34">
    <path d="M 260.265614 313.376875 
L 266.279068 313.376875 
L 266.279068 264.289586 
L 260.265614 264.289586 
z
" clip-path="url(#p405939d456)" style="fill: #1f77b4; fill-opacity: 0.5; stroke: #000000; stroke-width: 0.507273; stroke-linejoin: miter"/>
   </g>
   <g id="patch_35">
    <path d="M 266.279068 313.376875 
L 272.292523 313.376875 
L 272.292523 237.21939 
L 266.279068 237.21939 
z
" clip-path="url(#p405939d456)" style="fill: #1f77b4; fill-opacity: 0.5; stroke: #000000; stroke-width: 0.507273; stroke-linejoin: miter"/>
   </g>
   <g id="patch_36">
    <path d="M 272.292523 313.376875 
L 278.305977 313.376875 
L 278.305977 191.74146 
L 272.292523 191.74146 
z
" clip-path="url(#p405939d456)" style="fill: #1f77b4; fill-opacity: 0.5; stroke: #000000; stroke-width: 0.507273; stroke-linejoin: miter"/>
   </g>
   <g id="patch_37">
    <path d="M 278.305977 313.376875 
L 284.319432 313.376875 
L 284.319432 139.044811 
L 278.305977 139.044811 
z
" clip-path="url(#p405939d456)" style="fill: #1f77b4; fill-opacity: 0.5; stroke: #000000; stroke-width: 0.507273; stroke-linejoin: miter"/>
   </g>
   <g id="patch_38">
    <path d="M 284.319432 313.376875 
L 290.332886 313.376875 
L 290.332886 82.016931 
L 284.319432 82.016931 
z
" clip-path="url(#p405939d456)" style="fill: #1f77b4; fill-opacity: 0.5; stroke: #000000; stroke-width: 0.507273; stroke-linejoin: miter"/>
   </g>
   <g id="patch_39">
    <path d="M 290.332886 313.376875 
L 296.346341 313.376875 
L 296.346341 56.029543 
L 290.332886 56.029543 
z
" clip-path="url(#p405939d456)" style="fill: #1f77b4; fill-opacity: 0.5; stroke: #000000; stroke-width: 0.507273; stroke-linejoin: miter"/>
   </g>
   <g id="patch_40">
    <path d="M 296.346341 313.376875 
L 302.359795 313.376875 
L 302.359795 36.178065 
L 296.346341 36.178065 
z
" clip-path="url(#p405939d456)" style="fill: #1f77b4; fill-opacity: 0.5; stroke: #000000; stroke-width: 0.507273; stroke-linejoin: miter"/>
   </g>
   <g id="patch_41">
    <path d="M 302.359795 313.376875 
L 308.37325 313.376875 
L 308.37325 84.182547 
L 302.359795 84.182547 
z
" clip-path="url(#p405939d456)" style="fill: #1f77b4; fill-opacity: 0.5; stroke: #000000; stroke-width: 0.507273; stroke-linejoin: miter"/>
   </g>
   <g id="patch_42">
    <path d="M 308.37325 313.376875 
L 314.386705 313.376875 
L 314.386705 99.702793 
L 308.37325 99.702793 
z
" clip-path="url(#p405939d456)" style="fill: #1f77b4; fill-opacity: 0.5; stroke: #000000; stroke-width: 0.507273; stroke-linejoin: miter"/>
   </g>
   <g id="patch_43">
    <path d="M 314.386705 313.376875 
L 320.400159 313.376875 
L 320.400159 169.363431 
L 314.386705 169.363431 
z
" clip-path="url(#p405939d456)" style="fill: #1f77b4; fill-opacity: 0.5; stroke: #000000; stroke-width: 0.507273; stroke-linejoin: miter"/>
   </g>
   <g id="patch_44">
    <path d="M 320.400159 313.376875 
L 326.413614 313.376875 
L 326.413614 206.90077 
L 320.400159 206.90077 
z
" clip-path="url(#p405939d456)" style="fill: #1f77b4; fill-opacity: 0.5; stroke: #000000; stroke-width: 0.507273; stroke-linejoin: miter"/>
   </g>
   <g id="patch_45">
    <path d="M 326.413614 313.376875 
L 332.427068 313.376875 
L 332.427068 240.828749 
L 326.413614 240.828749 
z
" clip-path="url(#p405939d456)" style="fill: #1f77b4; fill-opacity: 0.5; stroke: #000000; stroke-width: 0.507273; stroke-linejoin: miter"/>
   </g>
   <g id="patch_46">
    <path d="M 332.427068 313.376875 
L 338.440523 313.376875 
L 338.440523 263.92865 
L 332.427068 263.92865 
z
" clip-path="url(#p405939d456)" style="fill: #1f77b4; fill-opacity: 0.5; stroke: #000000; stroke-width: 0.507273; stroke-linejoin: miter"/>
   </g>
   <g id="patch_47">
    <path d="M 338.440523 313.376875 
L 344.453977 313.376875 
L 344.453977 272.952049 
L 338.440523 272.952049 
z
" clip-path="url(#p405939d456)" style="fill: #1f77b4; fill-opacity: 0.5; stroke: #000000; stroke-width: 0.507273; stroke-linejoin: miter"/>
   </g>
   <g id="patch_48">
    <path d="M 344.453977 313.376875 
L 350.467432 313.376875 
L 350.467432 288.472294 
L 344.453977 288.472294 
z
" clip-path="url(#p405939d456)" style="fill: #1f77b4; fill-opacity: 0.5; stroke: #000000; stroke-width: 0.507273; stroke-linejoin: miter"/>
   </g>
   <g id="patch_49">
    <path d="M 350.467432 313.376875 
L 356.480886 313.376875 
L 356.480886 292.803526 
L 350.467432 292.803526 
z
" clip-path="url(#p405939d456)" style="fill: #1f77b4; fill-opacity: 0.5; stroke: #000000; stroke-width: 0.507273; stroke-linejoin: miter"/>
   </g>
   <g id="patch_50">
    <path d="M 356.480886 313.376875 
L 362.494341 313.376875 
L 362.494341 296.773821 
L 356.480886 296.773821 
z
" clip-path="url(#p405939d456)" style="fill: #1f77b4; fill-opacity: 0.5; stroke: #000000; stroke-width: 0.507273; stroke-linejoin: miter"/>
   </g>
   <g id="patch_51">
    <path d="M 362.494341 313.376875 
L 368.507795 313.376875 
L 368.507795 305.436284 
L 362.494341 305.436284 
z
" clip-path="url(#p405939d456)" style="fill: #1f77b4; fill-opacity: 0.5; stroke: #000000; stroke-width: 0.507273; stroke-linejoin: miter"/>
   </g>
   <g id="patch_52">
    <path d="M 368.507795 313.376875 
L 374.52125 313.376875 
L 374.52125 305.79722 
L 368.507795 305.79722 
z
" clip-path="url(#p405939d456)" style="fill: #1f77b4; fill-opacity: 0.5; stroke: #000000; stroke-width: 0.507273; stroke-linejoin: miter"/>
   </g>
   <g id="patch_53">
    <path d="M 374.52125 313.376875 
L 380.534705 313.376875 
L 380.534705 309.045644 
L 374.52125 309.045644 
z
" clip-path="url(#p405939d456)" style="fill: #1f77b4; fill-opacity: 0.5; stroke: #000000; stroke-width: 0.507273; stroke-linejoin: miter"/>
   </g>
   <g id="patch_54">
    <path d="M 380.534705 313.376875 
L 386.548159 313.376875 
L 386.548159 306.880028 
L 380.534705 306.880028 
z
" clip-path="url(#p405939d456)" style="fill: #1f77b4; fill-opacity: 0.5; stroke: #000000; stroke-width: 0.507273; stroke-linejoin: miter"/>
   </g>
   <g id="patch_55">
    <path d="M 386.548159 313.376875 
L 392.561614 313.376875 
L 392.561614 310.850323 
L 386.548159 310.850323 
z
" clip-path="url(#p405939d456)" style="fill: #1f77b4; fill-opacity: 0.5; stroke: #000000; stroke-width: 0.507273; stroke-linejoin: miter"/>
   </g>
   <g id="patch_56">
    <path d="M 392.561614 313.376875 
L 398.575068 313.376875 
L 398.575068 310.489387 
L 392.561614 310.489387 
z
" clip-path="url(#p405939d456)" style="fill: #1f77b4; fill-opacity: 0.5; stroke: #000000; stroke-width: 0.507273; stroke-linejoin: miter"/>
   </g>
   <g id="patch_57">
    <path d="M 398.575068 313.376875 
L 404.588523 313.376875 
L 404.588523 310.128451 
L 398.575068 310.128451 
z
" clip-path="url(#p405939d456)" style="fill: #1f77b4; fill-opacity: 0.5; stroke: #000000; stroke-width: 0.507273; stroke-linejoin: miter"/>
   </g>
   <g id="patch_58">
    <path d="M 404.588523 313.376875 
L 410.601977 313.376875 
L 410.601977 311.933131 
L 404.588523 311.933131 
z
" clip-path="url(#p405939d456)" style="fill: #1f77b4; fill-opacity: 0.5; stroke: #000000; stroke-width: 0.507273; stroke-linejoin: miter"/>
   </g>
   <g id="patch_59">
    <path d="M 410.601977 313.376875 
L 416.615432 313.376875 
L 416.615432 310.850323 
L 410.601977 310.850323 
z
" clip-path="url(#p405939d456)" style="fill: #1f77b4; fill-opacity: 0.5; stroke: #000000; stroke-width: 0.507273; stroke-linejoin: miter"/>
   </g>
   <g id="patch_60">
    <path d="M 416.615432 313.376875 
L 422.628886 313.376875 
L 422.628886 312.655003 
L 416.615432 312.655003 
z
" clip-path="url(#p405939d456)" style="fill: #1f77b4; fill-opacity: 0.5; stroke: #000000; stroke-width: 0.507273; stroke-linejoin: miter"/>
   </g>
   <g id="patch_61">
    <path d="M 422.628886 313.376875 
L 428.642341 313.376875 
L 428.642341 312.655003 
L 422.628886 312.655003 
z
" clip-path="url(#p405939d456)" style="fill: #1f77b4; fill-opacity: 0.5; stroke: #000000; stroke-width: 0.507273; stroke-linejoin: miter"/>
   </g>
   <g id="patch_62">
    <path d="M 428.642341 313.376875 
L 434.655795 313.376875 
L 434.655795 313.015939 
L 428.642341 313.015939 
z
" clip-path="url(#p405939d456)" style="fill: #1f77b4; fill-opacity: 0.5; stroke: #000000; stroke-width: 0.507273; stroke-linejoin: miter"/>
   </g>
   <g id="patch_63">
    <path d="M 434.655795 313.376875 
L 440.66925 313.376875 
L 440.66925 311.933131 
L 434.655795 311.933131 
z
" clip-path="url(#p405939d456)" style="fill: #1f77b4; fill-opacity: 0.5; stroke: #000000; stroke-width: 0.507273; stroke-linejoin: miter"/>
   </g>
   <g id="patch_64">
    <path d="M 440.66925 313.376875 
L 446.682705 313.376875 
L 446.682705 312.294067 
L 440.66925 312.294067 
z
" clip-path="url(#p405939d456)" style="fill: #1f77b4; fill-opacity: 0.5; stroke: #000000; stroke-width: 0.507273; stroke-linejoin: miter"/>
   </g>
   <g id="patch_65">
    <path d="M 446.682705 313.376875 
L 452.696159 313.376875 
L 452.696159 313.015939 
L 446.682705 313.015939 
z
" clip-path="url(#p405939d456)" style="fill: #1f77b4; fill-opacity: 0.5; stroke: #000000; stroke-width: 0.507273; stroke-linejoin: miter"/>
   </g>
   <g id="patch_66">
    <path d="M 452.696159 313.376875 
L 458.709614 313.376875 
L 458.709614 312.655003 
L 452.696159 312.655003 
z
" clip-path="url(#p405939d456)" style="fill: #1f77b4; fill-opacity: 0.5; stroke: #000000; stroke-width: 0.507273; stroke-linejoin: miter"/>
   </g>
   <g id="patch_67">
    <path d="M 458.709614 313.376875 
L 464.723068 313.376875 
L 464.723068 313.015939 
L 458.709614 313.015939 
z
" clip-path="url(#p405939d456)" style="fill: #1f77b4; fill-opacity: 0.5; stroke: #000000; stroke-width: 0.507273; stroke-linejoin: miter"/>
   </g>
   <g id="patch_68">
    <path d="M 464.723068 313.376875 
L 470.736523 313.376875 
L 470.736523 313.376875 
L 464.723068 313.376875 
z
" clip-path="url(#p405939d456)" style="fill: #1f77b4; fill-opacity: 0.5; stroke: #000000; stroke-width: 0.507273; stroke-linejoin: miter"/>
   </g>
   <g id="patch_69">
    <path d="M 470.736523 313.376875 
L 476.749977 313.376875 
L 476.749977 313.015939 
L 470.736523 313.015939 
z
" clip-path="url(#p405939d456)" style="fill: #1f77b4; fill-opacity: 0.5; stroke: #000000; stroke-width: 0.507273; stroke-linejoin: miter"/>
   </g>
   <g id="patch_70">
    <path d="M 476.749977 313.376875 
L 482.763432 313.376875 
L 482.763432 313.015939 
L 476.749977 313.015939 
z
" clip-path="url(#p405939d456)" style="fill: #1f77b4; fill-opacity: 0.5; stroke: #000000; stroke-width: 0.507273; stroke-linejoin: miter"/>
   </g>
   <g id="patch_71">
    <path d="M 482.763432 313.376875 
L 488.776886 313.376875 
L 488.776886 313.376875 
L 482.763432 313.376875 
z
" clip-path="url(#p405939d456)" style="fill: #1f77b4; fill-opacity: 0.5; stroke: #000000; stroke-width: 0.507273; stroke-linejoin: miter"/>
   </g>
   <g id="patch_72">
    <path d="M 488.776886 313.376875 
L 494.790341 313.376875 
L 494.790341 312.655003 
L 488.776886 312.655003 
z
" clip-path="url(#p405939d456)" style="fill: #1f77b4; fill-opacity: 0.5; stroke: #000000; stroke-width: 0.507273; stroke-linejoin: miter"/>
   </g>
   <g id="patch_73">
    <path d="M 494.790341 313.376875 
L 500.803795 313.376875 
L 500.803795 313.015939 
L 494.790341 313.015939 
z
" clip-path="url(#p405939d456)" style="fill: #1f77b4; fill-opacity: 0.5; stroke: #000000; stroke-width: 0.507273; stroke-linejoin: miter"/>
   </g>
   <g id="patch_74">
    <path d="M 500.803795 313.376875 
L 506.81725 313.376875 
L 506.81725 313.376875 
L 500.803795 313.376875 
z
" clip-path="url(#p405939d456)" style="fill: #1f77b4; fill-opacity: 0.5; stroke: #000000; stroke-width: 0.507273; stroke-linejoin: miter"/>
   </g>
   <g id="patch_75">
    <path d="M 506.81725 313.376875 
L 512.830705 313.376875 
L 512.830705 313.376875 
L 506.81725 313.376875 
z
" clip-path="url(#p405939d456)" style="fill: #1f77b4; fill-opacity: 0.5; stroke: #000000; stroke-width: 0.507273; stroke-linejoin: miter"/>
   </g>
   <g id="patch_76">
    <path d="M 512.830705 313.376875 
L 518.844159 313.376875 
L 518.844159 313.015939 
L 512.830705 313.015939 
z
" clip-path="url(#p405939d456)" style="fill: #1f77b4; fill-opacity: 0.5; stroke: #000000; stroke-width: 0.507273; stroke-linejoin: miter"/>
   </g>
   <g id="patch_77">
    <path d="M 518.844159 313.376875 
L 524.857614 313.376875 
L 524.857614 313.376875 
L 518.844159 313.376875 
z
" clip-path="url(#p405939d456)" style="fill: #1f77b4; fill-opacity: 0.5; stroke: #000000; stroke-width: 0.507273; stroke-linejoin: miter"/>
   </g>
   <g id="patch_78">
    <path d="M 524.857614 313.376875 
L 530.871068 313.376875 
L 530.871068 313.015939 
L 524.857614 313.015939 
z
" clip-path="url(#p405939d456)" style="fill: #1f77b4; fill-opacity: 0.5; stroke: #000000; stroke-width: 0.507273; stroke-linejoin: miter"/>
   </g>
   <g id="patch_79">
    <path d="M 530.871068 313.376875 
L 536.884523 313.376875 
L 536.884523 313.376875 
L 530.871068 313.376875 
z
" clip-path="url(#p405939d456)" style="fill: #1f77b4; fill-opacity: 0.5; stroke: #000000; stroke-width: 0.507273; stroke-linejoin: miter"/>
   </g>
   <g id="patch_80">
    <path d="M 536.884523 313.376875 
L 542.897977 313.376875 
L 542.897977 313.015939 
L 536.884523 313.015939 
z
" clip-path="url(#p405939d456)" style="fill: #1f77b4; fill-opacity: 0.5; stroke: #000000; stroke-width: 0.507273; stroke-linejoin: miter"/>
   </g>
   <g id="patch_81">
    <path d="M 542.897977 313.376875 
L 548.911432 313.376875 
L 548.911432 313.376875 
L 542.897977 313.376875 
z
" clip-path="url(#p405939d456)" style="fill: #1f77b4; fill-opacity: 0.5; stroke: #000000; stroke-width: 0.507273; stroke-linejoin: miter"/>
   </g>
   <g id="patch_82">
    <path d="M 548.911432 313.376875 
L 554.924886 313.376875 
L 554.924886 313.376875 
L 548.911432 313.376875 
z
" clip-path="url(#p405939d456)" style="fill: #1f77b4; fill-opacity: 0.5; stroke: #000000; stroke-width: 0.507273; stroke-linejoin: miter"/>
   </g>
   <g id="patch_83">
    <path d="M 554.924886 313.376875 
L 560.938341 313.376875 
L 560.938341 313.376875 
L 554.924886 313.376875 
z
" clip-path="url(#p405939d456)" style="fill: #1f77b4; fill-opacity: 0.5; stroke: #000000; stroke-width: 0.507273; stroke-linejoin: miter"/>
   </g>
   <g id="patch_84">
    <path d="M 560.938341 313.376875 
L 566.951795 313.376875 
L 566.951795 313.015939 
L 560.938341 313.015939 
z
" clip-path="url(#p405939d456)" style="fill: #1f77b4; fill-opacity: 0.5; stroke: #000000; stroke-width: 0.507273; stroke-linejoin: miter"/>
   </g>
   <g id="patch_85">
    <path d="M 566.951795 313.376875 
L 572.96525 313.376875 
L 572.96525 313.015939 
L 566.951795 313.015939 
z
" clip-path="url(#p405939d456)" style="fill: #1f77b4; fill-opacity: 0.5; stroke: #000000; stroke-width: 0.507273; stroke-linejoin: miter"/>
   </g>
   <g id="patch_86">
    <path d="M 572.96525 313.376875 
L 578.978705 313.376875 
L 578.978705 313.376875 
L 572.96525 313.376875 
z
" clip-path="url(#p405939d456)" style="fill: #1f77b4; fill-opacity: 0.5; stroke: #000000; stroke-width: 0.507273; stroke-linejoin: miter"/>
   </g>
   <g id="patch_87">
    <path d="M 578.978705 313.376875 
L 584.992159 313.376875 
L 584.992159 312.655003 
L 578.978705 312.655003 
z
" clip-path="url(#p405939d456)" style="fill: #1f77b4; fill-opacity: 0.5; stroke: #000000; stroke-width: 0.507273; stroke-linejoin: miter"/>
   </g>
   <g id="patch_88">
    <path d="M 584.992159 313.376875 
L 591.005614 313.376875 
L 591.005614 313.376875 
L 584.992159 313.376875 
z
" clip-path="url(#p405939d456)" style="fill: #1f77b4; fill-opacity: 0.5; stroke: #000000; stroke-width: 0.507273; stroke-linejoin: miter"/>
   </g>
   <g id="patch_89">
    <path d="M 591.005614 313.376875 
L 597.019068 313.376875 
L 597.019068 313.376875 
L 591.005614 313.376875 
z
" clip-path="url(#p405939d456)" style="fill: #1f77b4; fill-opacity: 0.5; stroke: #000000; stroke-width: 0.507273; stroke-linejoin: miter"/>
   </g>
   <g id="patch_90">
    <path d="M 597.019068 313.376875 
L 603.032523 313.376875 
L 603.032523 313.376875 
L 597.019068 313.376875 
z
" clip-path="url(#p405939d456)" style="fill: #1f77b4; fill-opacity: 0.5; stroke: #000000; stroke-width: 0.507273; stroke-linejoin: miter"/>
   </g>
   <g id="patch_91">
    <path d="M 603.032523 313.376875 
L 609.045977 313.376875 
L 609.045977 313.376875 
L 603.032523 313.376875 
z
" clip-path="url(#p405939d456)" style="fill: #1f77b4; fill-opacity: 0.5; stroke: #000000; stroke-width: 0.507273; stroke-linejoin: miter"/>
   </g>
   <g id="patch_92">
    <path d="M 609.045977 313.376875 
L 615.059432 313.376875 
L 615.059432 313.376875 
L 609.045977 313.376875 
z
" clip-path="url(#p405939d456)" style="fill: #1f77b4; fill-opacity: 0.5; stroke: #000000; stroke-width: 0.507273; stroke-linejoin: miter"/>
   </g>
   <g id="patch_93">
    <path d="M 615.059432 313.376875 
L 621.072886 313.376875 
L 621.072886 313.015939 
L 615.059432 313.015939 
z
" clip-path="url(#p405939d456)" style="fill: #1f77b4; fill-opacity: 0.5; stroke: #000000; stroke-width: 0.507273; stroke-linejoin: miter"/>
   </g>
   <g id="patch_94">
    <path d="M 621.072886 313.376875 
L 627.086341 313.376875 
L 627.086341 313.376875 
L 621.072886 313.376875 
z
" clip-path="url(#p405939d456)" style="fill: #1f77b4; fill-opacity: 0.5; stroke: #000000; stroke-width: 0.507273; stroke-linejoin: miter"/>
   </g>
   <g id="patch_95">
    <path d="M 627.086341 313.376875 
L 633.099795 313.376875 
L 633.099795 313.376875 
L 627.086341 313.376875 
z
" clip-path="url(#p405939d456)" style="fill: #1f77b4; fill-opacity: 0.5; stroke: #000000; stroke-width: 0.507273; stroke-linejoin: miter"/>
   </g>
   <g id="patch_96">
    <path d="M 633.099795 313.376875 
L 639.11325 313.376875 
L 639.11325 313.376875 
L 633.099795 313.376875 
z
" clip-path="url(#p405939d456)" style="fill: #1f77b4; fill-opacity: 0.5; stroke: #000000; stroke-width: 0.507273; stroke-linejoin: miter"/>
   </g>
   <g id="patch_97">
    <path d="M 639.11325 313.376875 
L 645.126705 313.376875 
L 645.126705 313.015939 
L 639.11325 313.015939 
z
" clip-path="url(#p405939d456)" style="fill: #1f77b4; fill-opacity: 0.5; stroke: #000000; stroke-width: 0.507273; stroke-linejoin: miter"/>
   </g>
   <g id="patch_98">
    <path d="M 645.126705 313.376875 
L 651.140159 313.376875 
L 651.140159 313.376875 
L 645.126705 313.376875 
z
" clip-path="url(#p405939d456)" style="fill: #1f77b4; fill-opacity: 0.5; stroke: #000000; stroke-width: 0.507273; stroke-linejoin: miter"/>
   </g>
   <g id="patch_99">
    <path d="M 651.140159 313.376875 
L 657.153614 313.376875 
L 657.153614 312.655003 
L 651.140159 312.655003 
z
" clip-path="url(#p405939d456)" style="fill: #1f77b4; fill-opacity: 0.5; stroke: #000000; stroke-width: 0.507273; stroke-linejoin: miter"/>
   </g>
   <g id="patch_100">
    <path d="M 657.153614 313.376875 
L 663.167068 313.376875 
L 663.167068 313.376875 
L 657.153614 313.376875 
z
" clip-path="url(#p405939d456)" style="fill: #1f77b4; fill-opacity: 0.5; stroke: #000000; stroke-width: 0.507273; stroke-linejoin: miter"/>
   </g>
   <g id="patch_101">
    <path d="M 663.167068 313.376875 
L 669.180523 313.376875 
L 669.180523 313.376875 
L 663.167068 313.376875 
z
" clip-path="url(#p405939d456)" style="fill: #1f77b4; fill-opacity: 0.5; stroke: #000000; stroke-width: 0.507273; stroke-linejoin: miter"/>
   </g>
   <g id="patch_102">
    <path d="M 669.180523 313.376875 
L 675.193977 313.376875 
L 675.193977 313.015939 
L 669.180523 313.015939 
z
" clip-path="url(#p405939d456)" style="fill: #1f77b4; fill-opacity: 0.5; stroke: #000000; stroke-width: 0.507273; stroke-linejoin: miter"/>
   </g>
   <g id="matplotlib.axis_1">
    <g id="xtick_1">
     <g id="line2d_1">
      <path d="M 71.148155 313.376875 
L 71.148155 22.318125 
" clip-path="url(#p405939d456)" style="fill: none; stroke: #b0b0b0; stroke-width: 0.8; stroke-linecap: square"/>
     </g>
     <g id="line2d_2">
      <defs>
       <path id="meee453f975" d="M 0 0 
L 0 3.5 
" style="stroke: #000000; stroke-width: 0.8"/>
      </defs>
      <g>
       <use xlink:href="#meee453f975" x="71.148155" y="313.376875" style="stroke: #000000; stroke-width: 0.8"/>
      </g>
     </g>
     <g id="text_1">
      <!-- −2 -->
      <g transform="translate(63.777061 327.975313) scale(0.1 -0.1)">
       <defs>
        <path id="DejaVuSans-2212" d="M 678 2272 
L 4684 2272 
L 4684 1741 
L 678 1741 
L 678 2272 
z
" transform="scale(0.015625)"/>
        <path id="DejaVuSans-32" d="M 1228 531 
L 3431 531 
L 3431 0 
L 469 0 
L 469 531 
Q 828 903 1448 1529 
Q 2069 2156 2228 2338 
Q 2531 2678 2651 2914 
Q 2772 3150 2772 3378 
Q 2772 3750 2511 3984 
Q 2250 4219 1831 4219 
Q 1534 4219 1204 4116 
Q 875 4013 500 3803 
L 500 4441 
Q 881 4594 1212 4672 
Q 1544 4750 1819 4750 
Q 2544 4750 2975 4387 
Q 3406 4025 3406 3419 
Q 3406 3131 3298 2873 
Q 3191 2616 2906 2266 
Q 2828 2175 2409 1742 
Q 1991 1309 1228 531 
z
" transform="scale(0.015625)"/>
       </defs>
       <use xlink:href="#DejaVuSans-2212"/>
       <use xlink:href="#DejaVuSans-32" transform="translate(83.789062 0)"/>
      </g>
     </g>
    </g>
    <g id="xtick_2">
     <g id="line2d_3">
      <path d="M 186.787417 313.376875 
L 186.787417 22.318125 
" clip-path="url(#p405939d456)" style="fill: none; stroke: #b0b0b0; stroke-width: 0.8; stroke-linecap: square"/>
     </g>
     <g id="line2d_4">
      <g>
       <use xlink:href="#meee453f975" x="186.787417" y="313.376875" style="stroke: #000000; stroke-width: 0.8"/>
      </g>
     </g>
     <g id="text_2">
      <!-- −1 -->
      <g transform="translate(179.416323 327.975313) scale(0.1 -0.1)">
       <defs>
        <path id="DejaVuSans-31" d="M 794 531 
L 1825 531 
L 1825 4091 
L 703 3866 
L 703 4441 
L 1819 4666 
L 2450 4666 
L 2450 531 
L 3481 531 
L 3481 0 
L 794 0 
L 794 531 
z
" transform="scale(0.015625)"/>
       </defs>
       <use xlink:href="#DejaVuSans-2212"/>
       <use xlink:href="#DejaVuSans-31" transform="translate(83.789062 0)"/>
      </g>
     </g>
    </g>
    <g id="xtick_3">
     <g id="line2d_5">
      <path d="M 302.42668 313.376875 
L 302.42668 22.318125 
" clip-path="url(#p405939d456)" style="fill: none; stroke: #b0b0b0; stroke-width: 0.8; stroke-linecap: square"/>
     </g>
     <g id="line2d_6">
      <g>
       <use xlink:href="#meee453f975" x="302.42668" y="313.376875" style="stroke: #000000; stroke-width: 0.8"/>
      </g>
     </g>
     <g id="text_3">
      <!-- 0 -->
      <g transform="translate(299.24543 327.975313) scale(0.1 -0.1)">
       <defs>
        <path id="DejaVuSans-30" d="M 2034 4250 
Q 1547 4250 1301 3770 
Q 1056 3291 1056 2328 
Q 1056 1369 1301 889 
Q 1547 409 2034 409 
Q 2525 409 2770 889 
Q 3016 1369 3016 2328 
Q 3016 3291 2770 3770 
Q 2525 4250 2034 4250 
z
M 2034 4750 
Q 2819 4750 3233 4129 
Q 3647 3509 3647 2328 
Q 3647 1150 3233 529 
Q 2819 -91 2034 -91 
Q 1250 -91 836 529 
Q 422 1150 422 2328 
Q 422 3509 836 4129 
Q 1250 4750 2034 4750 
z
" transform="scale(0.015625)"/>
       </defs>
       <use xlink:href="#DejaVuSans-30"/>
      </g>
     </g>
    </g>
    <g id="xtick_4">
     <g id="line2d_7">
      <path d="M 418.065942 313.376875 
L 418.065942 22.318125 
" clip-path="url(#p405939d456)" style="fill: none; stroke: #b0b0b0; stroke-width: 0.8; stroke-linecap: square"/>
     </g>
     <g id="line2d_8">
      <g>
       <use xlink:href="#meee453f975" x="418.065942" y="313.376875" style="stroke: #000000; stroke-width: 0.8"/>
      </g>
     </g>
     <g id="text_4">
      <!-- 1 -->
      <g transform="translate(414.884692 327.975313) scale(0.1 -0.1)">
       <use xlink:href="#DejaVuSans-31"/>
      </g>
     </g>
    </g>
    <g id="xtick_5">
     <g id="line2d_9">
      <path d="M 533.705204 313.376875 
L 533.705204 22.318125 
" clip-path="url(#p405939d456)" style="fill: none; stroke: #b0b0b0; stroke-width: 0.8; stroke-linecap: square"/>
     </g>
     <g id="line2d_10">
      <g>
       <use xlink:href="#meee453f975" x="533.705204" y="313.376875" style="stroke: #000000; stroke-width: 0.8"/>
      </g>
     </g>
     <g id="text_5">
      <!-- 2 -->
      <g transform="translate(530.523954 327.975313) scale(0.1 -0.1)">
       <use xlink:href="#DejaVuSans-32"/>
      </g>
     </g>
    </g>
    <g id="xtick_6">
     <g id="line2d_11">
      <path d="M 649.344467 313.376875 
L 649.344467 22.318125 
" clip-path="url(#p405939d456)" style="fill: none; stroke: #b0b0b0; stroke-width: 0.8; stroke-linecap: square"/>
     </g>
     <g id="line2d_12">
      <g>
       <use xlink:href="#meee453f975" x="649.344467" y="313.376875" style="stroke: #000000; stroke-width: 0.8"/>
      </g>
     </g>
     <g id="text_6">
      <!-- 3 -->
      <g transform="translate(646.163217 327.975313) scale(0.1 -0.1)">
       <defs>
        <path id="DejaVuSans-33" d="M 2597 2516 
Q 3050 2419 3304 2112 
Q 3559 1806 3559 1356 
Q 3559 666 3084 287 
Q 2609 -91 1734 -91 
Q 1441 -91 1130 -33 
Q 819 25 488 141 
L 488 750 
Q 750 597 1062 519 
Q 1375 441 1716 441 
Q 2309 441 2620 675 
Q 2931 909 2931 1356 
Q 2931 1769 2642 2001 
Q 2353 2234 1838 2234 
L 1294 2234 
L 1294 2753 
L 1863 2753 
Q 2328 2753 2575 2939 
Q 2822 3125 2822 3475 
Q 2822 3834 2567 4026 
Q 2313 4219 1838 4219 
Q 1578 4219 1281 4162 
Q 984 4106 628 3988 
L 628 4550 
Q 988 4650 1302 4700 
Q 1616 4750 1894 4750 
Q 2613 4750 3031 4423 
Q 3450 4097 3450 3541 
Q 3450 3153 3228 2886 
Q 3006 2619 2597 2516 
z
" transform="scale(0.015625)"/>
       </defs>
       <use xlink:href="#DejaVuSans-33"/>
      </g>
     </g>
    </g>
    <g id="text_7">
     <!-- logret_72h -->
     <g transform="translate(347.887656 341.653437) scale(0.1 -0.1)">
      <defs>
       <path id="DejaVuSans-6c" d="M 603 4863 
L 1178 4863 
L 1178 0 
L 603 0 
L 603 4863 
z
" transform="scale(0.015625)"/>
       <path id="DejaVuSans-6f" d="M 1959 3097 
Q 1497 3097 1228 2736 
Q 959 2375 959 1747 
Q 959 1119 1226 758 
Q 1494 397 1959 397 
Q 2419 397 2687 759 
Q 2956 1122 2956 1747 
Q 2956 2369 2687 2733 
Q 2419 3097 1959 3097 
z
M 1959 3584 
Q 2709 3584 3137 3096 
Q 3566 2609 3566 1747 
Q 3566 888 3137 398 
Q 2709 -91 1959 -91 
Q 1206 -91 779 398 
Q 353 888 353 1747 
Q 353 2609 779 3096 
Q 1206 3584 1959 3584 
z
" transform="scale(0.015625)"/>
       <path id="DejaVuSans-67" d="M 2906 1791 
Q 2906 2416 2648 2759 
Q 2391 3103 1925 3103 
Q 1463 3103 1205 2759 
Q 947 2416 947 1791 
Q 947 1169 1205 825 
Q 1463 481 1925 481 
Q 2391 481 2648 825 
Q 2906 1169 2906 1791 
z
M 3481 434 
Q 3481 -459 3084 -895 
Q 2688 -1331 1869 -1331 
Q 1566 -1331 1297 -1286 
Q 1028 -1241 775 -1147 
L 775 -588 
Q 1028 -725 1275 -790 
Q 1522 -856 1778 -856 
Q 2344 -856 2625 -561 
Q 2906 -266 2906 331 
L 2906 616 
Q 2728 306 2450 153 
Q 2172 0 1784 0 
Q 1141 0 747 490 
Q 353 981 353 1791 
Q 353 2603 747 3093 
Q 1141 3584 1784 3584 
Q 2172 3584 2450 3431 
Q 2728 3278 2906 2969 
L 2906 3500 
L 3481 3500 
L 3481 434 
z
" transform="scale(0.015625)"/>
       <path id="DejaVuSans-72" d="M 2631 2963 
Q 2534 3019 2420 3045 
Q 2306 3072 2169 3072 
Q 1681 3072 1420 2755 
Q 1159 2438 1159 1844 
L 1159 0 
L 581 0 
L 581 3500 
L 1159 3500 
L 1159 2956 
Q 1341 3275 1631 3429 
Q 1922 3584 2338 3584 
Q 2397 3584 2469 3576 
Q 2541 3569 2628 3553 
L 2631 2963 
z
" transform="scale(0.015625)"/>
       <path id="DejaVuSans-65" d="M 3597 1894 
L 3597 1613 
L 953 1613 
Q 991 1019 1311 708 
Q 1631 397 2203 397 
Q 2534 397 2845 478 
Q 3156 559 3463 722 
L 3463 178 
Q 3153 47 2828 -22 
Q 2503 -91 2169 -91 
Q 1331 -91 842 396 
Q 353 884 353 1716 
Q 353 2575 817 3079 
Q 1281 3584 2069 3584 
Q 2775 3584 3186 3129 
Q 3597 2675 3597 1894 
z
M 3022 2063 
Q 3016 2534 2758 2815 
Q 2500 3097 2075 3097 
Q 1594 3097 1305 2825 
Q 1016 2553 972 2059 
L 3022 2063 
z
" transform="scale(0.015625)"/>
       <path id="DejaVuSans-74" d="M 1172 4494 
L 1172 3500 
L 2356 3500 
L 2356 3053 
L 1172 3053 
L 1172 1153 
Q 1172 725 1289 603 
Q 1406 481 1766 481 
L 2356 481 
L 2356 0 
L 1766 0 
Q 1100 0 847 248 
Q 594 497 594 1153 
L 594 3053 
L 172 3053 
L 172 3500 
L 594 3500 
L 594 4494 
L 1172 4494 
z
" transform="scale(0.015625)"/>
       <path id="DejaVuSans-5f" d="M 3263 -1063 
L 3263 -1509 
L -63 -1509 
L -63 -1063 
L 3263 -1063 
z
" transform="scale(0.015625)"/>
       <path id="DejaVuSans-37" d="M 525 4666 
L 3525 4666 
L 3525 4397 
L 1831 0 
L 1172 0 
L 2766 4134 
L 525 4134 
L 525 4666 
z
" transform="scale(0.015625)"/>
       <path id="DejaVuSans-68" d="M 3513 2113 
L 3513 0 
L 2938 0 
L 2938 2094 
Q 2938 2591 2744 2837 
Q 2550 3084 2163 3084 
Q 1697 3084 1428 2787 
Q 1159 2491 1159 1978 
L 1159 0 
L 581 0 
L 581 4863 
L 1159 4863 
L 1159 2956 
Q 1366 3272 1645 3428 
Q 1925 3584 2291 3584 
Q 2894 3584 3203 3211 
Q 3513 2838 3513 2113 
z
" transform="scale(0.015625)"/>
      </defs>
      <use xlink:href="#DejaVuSans-6c"/>
      <use xlink:href="#DejaVuSans-6f" transform="translate(27.783203 0)"/>
      <use xlink:href="#DejaVuSans-67" transform="translate(88.964844 0)"/>
      <use xlink:href="#DejaVuSans-72" transform="translate(152.441406 0)"/>
      <use xlink:href="#DejaVuSans-65" transform="translate(191.304688 0)"/>
      <use xlink:href="#DejaVuSans-74" transform="translate(252.828125 0)"/>
      <use xlink:href="#DejaVuSans-5f" transform="translate(292.037109 0)"/>
      <use xlink:href="#DejaVuSans-37" transform="translate(342.037109 0)"/>
      <use xlink:href="#DejaVuSans-32" transform="translate(405.660156 0)"/>
      <use xlink:href="#DejaVuSans-68" transform="translate(469.283203 0)"/>
     </g>
    </g>
   </g>
   <g id="matplotlib.axis_2">
    <g id="ytick_1">
     <g id="line2d_13">
      <path d="M 43.78125 313.376875 
L 705.26125 313.376875 
" clip-path="url(#p405939d456)" style="fill: none; stroke: #b0b0b0; stroke-width: 0.8; stroke-linecap: square"/>
     </g>
     <g id="line2d_14">
      <defs>
       <path id="md291453a90" d="M 0 0 
L -3.5 0 
" style="stroke: #000000; stroke-width: 0.8"/>
      </defs>
      <g>
       <use xlink:href="#md291453a90" x="43.78125" y="313.376875" style="stroke: #000000; stroke-width: 0.8"/>
      </g>
     </g>
     <g id="text_8">
      <!-- 0.0 -->
      <g transform="translate(20.878125 317.176094) scale(0.1 -0.1)">
       <defs>
        <path id="DejaVuSans-2e" d="M 684 794 
L 1344 794 
L 1344 0 
L 684 0 
L 684 794 
z
" transform="scale(0.015625)"/>
       </defs>
       <use xlink:href="#DejaVuSans-30"/>
       <use xlink:href="#DejaVuSans-2e" transform="translate(63.623047 0)"/>
       <use xlink:href="#DejaVuSans-30" transform="translate(95.410156 0)"/>
      </g>
     </g>
    </g>
    <g id="ytick_2">
     <g id="line2d_15">
      <path d="M 43.78125 253.896856 
L 705.26125 253.896856 
" clip-path="url(#p405939d456)" style="fill: none; stroke: #b0b0b0; stroke-width: 0.8; stroke-linecap: square"/>
     </g>
     <g id="line2d_16">
      <g>
       <use xlink:href="#md291453a90" x="43.78125" y="253.896856" style="stroke: #000000; stroke-width: 0.8"/>
      </g>
     </g>
     <g id="text_9">
      <!-- 0.5 -->
      <g transform="translate(20.878125 257.696075) scale(0.1 -0.1)">
       <defs>
        <path id="DejaVuSans-35" d="M 691 4666 
L 3169 4666 
L 3169 4134 
L 1269 4134 
L 1269 2991 
Q 1406 3038 1543 3061 
Q 1681 3084 1819 3084 
Q 2600 3084 3056 2656 
Q 3513 2228 3513 1497 
Q 3513 744 3044 326 
Q 2575 -91 1722 -91 
Q 1428 -91 1123 -41 
Q 819 9 494 109 
L 494 744 
Q 775 591 1075 516 
Q 1375 441 1709 441 
Q 2250 441 2565 725 
Q 2881 1009 2881 1497 
Q 2881 1984 2565 2268 
Q 2250 2553 1709 2553 
Q 1456 2553 1204 2497 
Q 953 2441 691 2322 
L 691 4666 
z
" transform="scale(0.015625)"/>
       </defs>
       <use xlink:href="#DejaVuSans-30"/>
       <use xlink:href="#DejaVuSans-2e" transform="translate(63.623047 0)"/>
       <use xlink:href="#DejaVuSans-35" transform="translate(95.410156 0)"/>
      </g>
     </g>
    </g>
    <g id="ytick_3">
     <g id="line2d_17">
      <path d="M 43.78125 194.416837 
L 705.26125 194.416837 
" clip-path="url(#p405939d456)" style="fill: none; stroke: #b0b0b0; stroke-width: 0.8; stroke-linecap: square"/>
     </g>
     <g id="line2d_18">
      <g>
       <use xlink:href="#md291453a90" x="43.78125" y="194.416837" style="stroke: #000000; stroke-width: 0.8"/>
      </g>
     </g>
     <g id="text_10">
      <!-- 1.0 -->
      <g transform="translate(20.878125 198.216055) scale(0.1 -0.1)">
       <use xlink:href="#DejaVuSans-31"/>
       <use xlink:href="#DejaVuSans-2e" transform="translate(63.623047 0)"/>
       <use xlink:href="#DejaVuSans-30" transform="translate(95.410156 0)"/>
      </g>
     </g>
    </g>
    <g id="ytick_4">
     <g id="line2d_19">
      <path d="M 43.78125 134.936818 
L 705.26125 134.936818 
" clip-path="url(#p405939d456)" style="fill: none; stroke: #b0b0b0; stroke-width: 0.8; stroke-linecap: square"/>
     </g>
     <g id="line2d_20">
      <g>
       <use xlink:href="#md291453a90" x="43.78125" y="134.936818" style="stroke: #000000; stroke-width: 0.8"/>
      </g>
     </g>
     <g id="text_11">
      <!-- 1.5 -->
      <g transform="translate(20.878125 138.736036) scale(0.1 -0.1)">
       <use xlink:href="#DejaVuSans-31"/>
       <use xlink:href="#DejaVuSans-2e" transform="translate(63.623047 0)"/>
       <use xlink:href="#DejaVuSans-35" transform="translate(95.410156 0)"/>
      </g>
     </g>
    </g>
    <g id="ytick_5">
     <g id="line2d_21">
      <path d="M 43.78125 75.456798 
L 705.26125 75.456798 
" clip-path="url(#p405939d456)" style="fill: none; stroke: #b0b0b0; stroke-width: 0.8; stroke-linecap: square"/>
     </g>
     <g id="line2d_22">
      <g>
       <use xlink:href="#md291453a90" x="43.78125" y="75.456798" style="stroke: #000000; stroke-width: 0.8"/>
      </g>
     </g>
     <g id="text_12">
      <!-- 2.0 -->
      <g transform="translate(20.878125 79.256017) scale(0.1 -0.1)">
       <use xlink:href="#DejaVuSans-32"/>
       <use xlink:href="#DejaVuSans-2e" transform="translate(63.623047 0)"/>
       <use xlink:href="#DejaVuSans-30" transform="translate(95.410156 0)"/>
      </g>
     </g>
    </g>
    <g id="text_13">
     <!-- Density -->
     <g transform="translate(14.798438 186.856094) rotate(-90) scale(0.1 -0.1)">
      <defs>
       <path id="DejaVuSans-44" d="M 1259 4147 
L 1259 519 
L 2022 519 
Q 2988 519 3436 956 
Q 3884 1394 3884 2338 
Q 3884 3275 3436 3711 
Q 2988 4147 2022 4147 
L 1259 4147 
z
M 628 4666 
L 1925 4666 
Q 3281 4666 3915 4102 
Q 4550 3538 4550 2338 
Q 4550 1131 3912 565 
Q 3275 0 1925 0 
L 628 0 
L 628 4666 
z
" transform="scale(0.015625)"/>
       <path id="DejaVuSans-6e" d="M 3513 2113 
L 3513 0 
L 2938 0 
L 2938 2094 
Q 2938 2591 2744 2837 
Q 2550 3084 2163 3084 
Q 1697 3084 1428 2787 
Q 1159 2491 1159 1978 
L 1159 0 
L 581 0 
L 581 3500 
L 1159 3500 
L 1159 2956 
Q 1366 3272 1645 3428 
Q 1925 3584 2291 3584 
Q 2894 3584 3203 3211 
Q 3513 2838 3513 2113 
z
" transform="scale(0.015625)"/>
       <path id="DejaVuSans-73" d="M 2834 3397 
L 2834 2853 
Q 2591 2978 2328 3040 
Q 2066 3103 1784 3103 
Q 1356 3103 1142 2972 
Q 928 2841 928 2578 
Q 928 2378 1081 2264 
Q 1234 2150 1697 2047 
L 1894 2003 
Q 2506 1872 2764 1633 
Q 3022 1394 3022 966 
Q 3022 478 2636 193 
Q 2250 -91 1575 -91 
Q 1294 -91 989 -36 
Q 684 19 347 128 
L 347 722 
Q 666 556 975 473 
Q 1284 391 1588 391 
Q 1994 391 2212 530 
Q 2431 669 2431 922 
Q 2431 1156 2273 1281 
Q 2116 1406 1581 1522 
L 1381 1569 
Q 847 1681 609 1914 
Q 372 2147 372 2553 
Q 372 3047 722 3315 
Q 1072 3584 1716 3584 
Q 2034 3584 2315 3537 
Q 2597 3491 2834 3397 
z
" transform="scale(0.015625)"/>
       <path id="DejaVuSans-69" d="M 603 3500 
L 1178 3500 
L 1178 0 
L 603 0 
L 603 3500 
z
M 603 4863 
L 1178 4863 
L 1178 4134 
L 603 4134 
L 603 4863 
z
" transform="scale(0.015625)"/>
       <path id="DejaVuSans-79" d="M 2059 -325 
Q 1816 -950 1584 -1140 
Q 1353 -1331 966 -1331 
L 506 -1331 
L 506 -850 
L 844 -850 
Q 1081 -850 1212 -737 
Q 1344 -625 1503 -206 
L 1606 56 
L 191 3500 
L 800 3500 
L 1894 763 
L 2988 3500 
L 3597 3500 
L 2059 -325 
z
" transform="scale(0.015625)"/>
      </defs>
      <use xlink:href="#DejaVuSans-44"/>
      <use xlink:href="#DejaVuSans-65" transform="translate(77.001953 0)"/>
      <use xlink:href="#DejaVuSans-6e" transform="translate(138.525391 0)"/>
      <use xlink:href="#DejaVuSans-73" transform="translate(201.904297 0)"/>
      <use xlink:href="#DejaVuSans-69" transform="translate(254.003906 0)"/>
      <use xlink:href="#DejaVuSans-74" transform="translate(281.787109 0)"/>
      <use xlink:href="#DejaVuSans-79" transform="translate(320.996094 0)"/>
     </g>
    </g>
   </g>
   <g id="line2d_23">
    <path d="M 73.848523 313.094267 
L 79.892196 313.143405 
L 85.935869 313.279934 
L 113.132397 313.165612 
L 119.17607 312.85634 
L 125.219742 312.811603 
L 140.328925 313.13789 
L 149.394434 312.674991 
L 155.438107 312.772589 
L 164.503616 313.159359 
L 167.525453 313.134122 
L 170.547289 312.942302 
L 179.612799 311.907841 
L 185.656472 311.534677 
L 188.678308 311.409629 
L 191.700144 311.398611 
L 203.78749 311.825933 
L 206.809327 311.59618 
L 215.874836 310.451643 
L 218.896673 309.994984 
L 221.918509 309.353832 
L 224.940345 308.456097 
L 227.962182 307.271573 
L 230.984018 305.775231 
L 234.005855 303.9143 
L 237.027691 301.633198 
L 240.049528 298.958041 
L 243.071364 296.007099 
L 246.093201 292.866126 
L 249.115037 289.413766 
L 252.136874 285.285536 
L 255.15871 280.10217 
L 258.180546 273.610385 
L 261.202383 265.401261 
L 264.224219 254.721586 
L 267.246056 240.870198 
L 270.267892 223.683858 
L 273.289729 203.490377 
L 276.311565 180.720021 
L 285.377075 105.846997 
L 288.398911 84.753992 
L 291.420747 68.532603 
L 294.442584 58.246328 
L 297.46442 54.791519 
L 300.486257 58.526643 
L 303.508093 68.640624 
L 306.52993 83.597002 
L 309.551766 102.373662 
L 312.573603 124.378045 
L 318.617276 171.278187 
L 321.639112 192.283542 
L 324.660948 210.997153 
L 327.682785 227.704605 
L 330.704621 242.157883 
L 333.726458 253.897914 
L 336.748294 263.150811 
L 339.770131 270.830354 
L 342.791967 277.613069 
L 345.813804 283.399151 
L 348.83564 287.800303 
L 351.857477 290.905857 
L 357.901149 295.943835 
L 363.944822 301.573291 
L 366.966659 303.90924 
L 369.988495 305.560162 
L 373.010332 306.617028 
L 376.032168 307.318704 
L 391.141351 309.992459 
L 394.163187 310.247266 
L 400.20686 310.431713 
L 406.250533 311.043442 
L 412.294206 311.551263 
L 418.337879 312.079488 
L 424.381552 312.61823 
L 427.403388 312.73389 
L 430.425224 312.705565 
L 439.490734 312.354767 
L 445.534407 312.561804 
L 451.57808 312.754728 
L 460.643589 312.906271 
L 466.687262 313.119264 
L 478.774608 313.128831 
L 487.840117 313.056546 
L 493.88379 312.951619 
L 499.927463 313.111464 
L 505.971136 313.278706 
L 545.25501 313.289045 
L 554.320519 313.321609 
L 578.495211 313.009632 
L 584.538884 313.122198 
L 593.604393 313.356478 
L 608.713575 313.340145 
L 620.800921 313.237258 
L 632.888267 313.352884 
L 644.975613 313.119668 
L 654.041122 313.034114 
L 666.128468 313.316397 
L 675.193977 313.218885 
L 675.193977 313.218885 
" clip-path="url(#p405939d456)" style="fill: none; stroke: #1f77b4; stroke-width: 1.5; stroke-linecap: square"/>
   </g>
   <g id="patch_103">
    <path d="M 43.78125 313.376875 
L 43.78125 22.318125 
" style="fill: none; stroke: #000000; stroke-width: 0.8; stroke-linejoin: miter; stroke-linecap: square"/>
   </g>
   <g id="patch_104">
    <path d="M 705.26125 313.376875 
L 705.26125 22.318125 
" style="fill: none; stroke: #000000; stroke-width: 0.8; stroke-linejoin: miter; stroke-linecap: square"/>
   </g>
   <g id="patch_105">
    <path d="M 43.78125 313.376875 
L 705.26125 313.376875 
" style="fill: none; stroke: #000000; stroke-width: 0.8; stroke-linejoin: miter; stroke-linecap: square"/>
   </g>
   <g id="patch_106">
    <path d="M 43.78125 22.318125 
L 705.26125 22.318125 
" style="fill: none; stroke: #000000; stroke-width: 0.8; stroke-linejoin: miter; stroke-linecap: square"/>
   </g>
   <g id="text_14">
    <!-- Distribution of 72-hour Log Returns -->
    <g transform="translate(268.811563 16.318125) scale(0.12 -0.12)">
     <defs>
      <path id="DejaVuSans-62" d="M 3116 1747 
Q 3116 2381 2855 2742 
Q 2594 3103 2138 3103 
Q 1681 3103 1420 2742 
Q 1159 2381 1159 1747 
Q 1159 1113 1420 752 
Q 1681 391 2138 391 
Q 2594 391 2855 752 
Q 3116 1113 3116 1747 
z
M 1159 2969 
Q 1341 3281 1617 3432 
Q 1894 3584 2278 3584 
Q 2916 3584 3314 3078 
Q 3713 2572 3713 1747 
Q 3713 922 3314 415 
Q 2916 -91 2278 -91 
Q 1894 -91 1617 61 
Q 1341 213 1159 525 
L 1159 0 
L 581 0 
L 581 4863 
L 1159 4863 
L 1159 2969 
z
" transform="scale(0.015625)"/>
      <path id="DejaVuSans-75" d="M 544 1381 
L 544 3500 
L 1119 3500 
L 1119 1403 
Q 1119 906 1312 657 
Q 1506 409 1894 409 
Q 2359 409 2629 706 
Q 2900 1003 2900 1516 
L 2900 3500 
L 3475 3500 
L 3475 0 
L 2900 0 
L 2900 538 
Q 2691 219 2414 64 
Q 2138 -91 1772 -91 
Q 1169 -91 856 284 
Q 544 659 544 1381 
z
M 1991 3584 
L 1991 3584 
z
" transform="scale(0.015625)"/>
      <path id="DejaVuSans-20" transform="scale(0.015625)"/>
      <path id="DejaVuSans-66" d="M 2375 4863 
L 2375 4384 
L 1825 4384 
Q 1516 4384 1395 4259 
Q 1275 4134 1275 3809 
L 1275 3500 
L 2222 3500 
L 2222 3053 
L 1275 3053 
L 1275 0 
L 697 0 
L 697 3053 
L 147 3053 
L 147 3500 
L 697 3500 
L 697 3744 
Q 697 4328 969 4595 
Q 1241 4863 1831 4863 
L 2375 4863 
z
" transform="scale(0.015625)"/>
      <path id="DejaVuSans-2d" d="M 313 2009 
L 1997 2009 
L 1997 1497 
L 313 1497 
L 313 2009 
z
" transform="scale(0.015625)"/>
      <path id="DejaVuSans-4c" d="M 628 4666 
L 1259 4666 
L 1259 531 
L 3531 531 
L 3531 0 
L 628 0 
L 628 4666 
z
" transform="scale(0.015625)"/>
      <path id="DejaVuSans-52" d="M 2841 2188 
Q 3044 2119 3236 1894 
Q 3428 1669 3622 1275 
L 4263 0 
L 3584 0 
L 2988 1197 
Q 2756 1666 2539 1819 
Q 2322 1972 1947 1972 
L 1259 1972 
L 1259 0 
L 628 0 
L 628 4666 
L 2053 4666 
Q 2853 4666 3247 4331 
Q 3641 3997 3641 3322 
Q 3641 2881 3436 2590 
Q 3231 2300 2841 2188 
z
M 1259 4147 
L 1259 2491 
L 2053 2491 
Q 2509 2491 2742 2702 
Q 2975 2913 2975 3322 
Q 2975 3731 2742 3939 
Q 2509 4147 2053 4147 
L 1259 4147 
z
" transform="scale(0.015625)"/>
     </defs>
     <use xlink:href="#DejaVuSans-44"/>
     <use xlink:href="#DejaVuSans-69" transform="translate(77.001953 0)"/>
     <use xlink:href="#DejaVuSans-73" transform="translate(104.785156 0)"/>
     <use xlink:href="#DejaVuSans-74" transform="translate(156.884766 0)"/>
     <use xlink:href="#DejaVuSans-72" transform="translate(196.09375 0)"/>
     <use xlink:href="#DejaVuSans-69" transform="translate(237.207031 0)"/>
     <use xlink:href="#DejaVuSans-62" transform="translate(264.990234 0)"/>
     <use xlink:href="#DejaVuSans-75" transform="translate(328.466797 0)"/>
     <use xlink:href="#DejaVuSans-74" transform="translate(391.845703 0)"/>
     <use xlink:href="#DejaVuSans-69" transform="translate(431.054688 0)"/>
     <use xlink:href="#DejaVuSans-6f" transform="translate(458.837891 0)"/>
     <use xlink:href="#DejaVuSans-6e" transform="translate(520.019531 0)"/>
     <use xlink:href="#DejaVuSans-20" transform="translate(583.398438 0)"/>
     <use xlink:href="#DejaVuSans-6f" transform="translate(615.185547 0)"/>
     <use xlink:href="#DejaVuSans-66" transform="translate(676.367188 0)"/>
     <use xlink:href="#DejaVuSans-20" transform="translate(711.572266 0)"/>
     <use xlink:href="#DejaVuSans-37" transform="translate(743.359375 0)"/>
     <use xlink:href="#DejaVuSans-32" transform="translate(806.982422 0)"/>
     <use xlink:href="#DejaVuSans-2d" transform="translate(870.605469 0)"/>
     <use xlink:href="#DejaVuSans-68" transform="translate(906.689453 0)"/>
     <use xlink:href="#DejaVuSans-6f" transform="translate(970.068359 0)"/>
     <use xlink:href="#DejaVuSans-75" transform="translate(1031.25 0)"/>
     <use xlink:href="#DejaVuSans-72" transform="translate(1094.628906 0)"/>
     <use xlink:href="#DejaVuSans-20" transform="translate(1135.742188 0)"/>
     <use xlink:href="#DejaVuSans-4c" transform="translate(1167.529297 0)"/>
     <use xlink:href="#DejaVuSans-6f" transform="translate(1221.492188 0)"/>
     <use xlink:href="#DejaVuSans-67" transform="translate(1282.673828 0)"/>
     <use xlink:href="#DejaVuSans-20" transform="translate(1346.150391 0)"/>
     <use xlink:href="#DejaVuSans-52" transform="translate(1377.9375 0)"/>
     <use xlink:href="#DejaVuSans-65" transform="translate(1442.919922 0)"/>
     <use xlink:href="#DejaVuSans-74" transform="translate(1504.443359 0)"/>
     <use xlink:href="#DejaVuSans-75" transform="translate(1543.652344 0)"/>
     <use xlink:href="#DejaVuSans-72" transform="translate(1607.03125 0)"/>
     <use xlink:href="#DejaVuSans-6e" transform="translate(1646.394531 0)"/>
     <use xlink:href="#DejaVuSans-73" transform="translate(1709.773438 0)"/>
    </g>
   </g>
  </g>
 </g>
 <defs>
  <clipPath id="p405939d456">
   <rect x="43.78125" y="22.318125" width="661.48" height="291.05875"/>
  </clipPath>
 </defs>
</svg>
